<?xml version="1.0" encoding="UTF-8"?>
<svg xmlns="http://www.w3.org/2000/svg" width="1200" height="400" viewBox="0 0 1200 400">
  <defs>
    <radialGradient id="bg" cx="50%" cy="50%" r="70%">
      <stop offset="0%" stop-color="#0b1020"/>
      <stop offset="60%" stop-color="#0b1020"/>
      <stop offset="100%" stop-color="#0d1430"/>
    </radialGradient>
    <linearGradient id="neon" x1="0%" y1="0%" x2="100%" y2="0%">
      <stop offset="0%" stop-color="#00eaff"/>
      <stop offset="50%" stop-color="#9b5cf6"/>
      <stop offset="100%" stop-color="#ff2ef2"/>
    </linearGradient>
    <filter id="glow" x="-50%" y="-50%" width="200%" height="200%">
      <feGaussianBlur stdDeviation="4" result="blur"/>
      <feMerge>
        <feMergeNode in="blur"/>
        <feMergeNode in="SourceGraphic"/>
      </feMerge>
    </filter>
  </defs>

  <!-- Background -->
  <rect x="0" y="0" width="1200" height="400" fill="url(#bg)"/>

  <!-- Subtle grid -->
  <g stroke="#1b2640" stroke-width="1" opacity="0.35">
    <!-- vertical -->
    <g>
      <!-- draw lines every 60px -->
      <path d="M60 0 V400 M120 0 V400 M180 0 V400 M240 0 V400 M300 0 V400 M360 0 V400 M420 0 V400 M480 0 V400 M540 0 V400 M600 0 V400 M660 0 V400 M720 0 V400 M780 0 V400 M840 0 V400 M900 0 V400 M960 0 V400 M1020 0 V400 M1080 0 V400 M1140 0 V400"/>
    </g>
    <!-- horizontal -->
    <g>
      <path d="M0 60 H1200 M0 120 H1200 M0 180 H1200 M0 240 H1200 M0 300 H1200 M0 360 H1200"/>
    </g>
  </g>

  <!-- Concentric circles (ambient) -->
  <g stroke="#24335a" stroke-width="2" opacity="0.45" filter="url(#glow)">
    <circle cx="600" cy="200" r="180" fill="none"/>
    <circle cx="600" cy="200" r="140" fill="none"/>
    <circle cx="600" cy="200" r="100" fill="none"/>
  </g>

  <!-- Neon diagonal line -->
  <g filter="url(#glow)">
    <path d="M120 330 L1080 70" stroke="url(#neon)" stroke-width="3" fill="none" opacity="0.9"/>
  </g>

  <!-- Title / Signature -->
  <g text-anchor="middle" font-family="Orbitron, Roboto, Segoe UI, Arial, sans-serif" fill="#cfe9ff">
    <text x="600" y="120" font-size="48" font-weight="700">Lexiograph</text>
    <text x="600" y="160" font-size="18" fill="#8fb6ff">Gramática Semiótica dos Sistemas Digitais</text>
  </g>

  <!-- Central motif (Lex + IO + Graph) rotating -->
  <g transform="translate(600,200)" filter="url(#glow)">
    <g>
      <circle r="64" fill="none" stroke="#00eaff" stroke-width="2" opacity="0.85"/>
      <circle r="42" fill="none" stroke="#9b5cf6" stroke-width="2" opacity="0.85"/>
      <circle r="22" fill="none" stroke="#ff2ef2" stroke-width="2" opacity="0.85"/>
    </g>
    <g>
      <circle cx="64" cy="0" r="4" fill="#00eaff"/>
      <circle cx="0" cy="42" r="3.5" fill="#9b5cf6"/>
      <circle cx="-22" cy="0" r="3" fill="#ff2ef2"/>
    </g>
    <animateTransform attributeName="transform" attributeType="XML" type="rotate" from="0 0 0" to="360 0 0" dur="24s" repeatCount="indefinite"/>
  </g>

  <!-- Tagline -->
  <g text-anchor="middle" font-family="Roboto, Segoe UI, Arial, sans-serif" fill="#93e7ff">
    <text x="600" y="320" font-size="16" opacity="0.9">Lex • IO • Graph — Compliance Digital, Interação Sistêmica e Grafos de Conhecimento</text>
  </g>
</svg>